<?xml version="1.0" encoding="UTF-8" standalone="no"?>
<svg
   data-name="Ebene 1"
   viewBox="0 0 48 48"
   version="1.1"
   id="svg22"
   sodipodi:docname="since-indicator.svg"
   width="48"
   height="48"
   inkscape:version="1.2 (dc2aedaf03, 2022-05-15)"
   xml:space="preserve"
   inkscape:export-filename="since-indicator.png"
   inkscape:export-xdpi="279.27274"
   inkscape:export-ydpi="279.27274"
   xmlns:inkscape="http://www.inkscape.org/namespaces/inkscape"
   xmlns:sodipodi="http://sodipodi.sourceforge.net/DTD/sodipodi-0.dtd"
   xmlns="http://www.w3.org/2000/svg"
   xmlns:svg="http://www.w3.org/2000/svg"
   xmlns:rdf="http://www.w3.org/1999/02/22-rdf-syntax-ns#"
   xmlns:cc="http://creativecommons.org/ns#"
   xmlns:dc="http://purl.org/dc/elements/1.1/"><metadata
     id="metadata26"><rdf:RDF><cc:Work
         rdf:about=""><dc:format>image/svg+xml</dc:format><dc:type
           rdf:resource="http://purl.org/dc/dcmitype/StillImage" /></cc:Work></rdf:RDF></metadata><sodipodi:namedview
     pagecolor="#ffffff"
     bordercolor="#666666"
     borderopacity="1"
     objecttolerance="10"
     gridtolerance="10"
     guidetolerance="10"
     inkscape:pageopacity="0"
     inkscape:pageshadow="2"
     inkscape:window-width="1920"
     inkscape:window-height="1011"
     id="namedview24"
     showgrid="false"
     fit-margin-top="20"
     fit-margin-left="20"
     fit-margin-right="20"
     fit-margin-bottom="20"
     inkscape:zoom="9.9887212"
     inkscape:cx="3.1535568"
     inkscape:cy="33.287544"
     inkscape:window-x="0"
     inkscape:window-y="0"
     inkscape:window-maximized="1"
     inkscape:current-layer="svg22"
     showguides="true"
     inkscape:guide-bbox="true"
     inkscape:snap-intersection-paths="true"
     inkscape:object-paths="true"
     inkscape:showpageshadow="2"
     inkscape:pagecheckerboard="0"
     inkscape:deskcolor="#d1d1d1"><sodipodi:guide
       position="36.060028,40.060401"
       orientation="0.70710678,0.70710678"
       id="guide902"
       inkscape:locked="false"
       inkscape:label=""
       inkscape:color="rgb(0,0,255)" /><sodipodi:guide
       position="11.885065,8.2113026"
       orientation="0.70710678,0.70710678"
       id="guide904"
       inkscape:locked="false"
       inkscape:label=""
       inkscape:color="rgb(0,0,255)" /><sodipodi:guide
       position="11.852158,37.962678"
       orientation="0.70710678,0.70710678"
       id="guide906"
       inkscape:locked="false"
       inkscape:label=""
       inkscape:color="rgb(0,0,255)" /><sodipodi:guide
       position="17.489625,4.0000012"
       orientation="0.70710678,0.70710678"
       id="guide908"
       inkscape:locked="false"
       inkscape:label=""
       inkscape:color="rgb(0,0,255)" /></sodipodi:namedview><defs
     id="defs10"><clipPath
       id="d"><circle
         cx="400"
         cy="400"
         r="400"
         id="circle2"
         style="fill:none" /></clipPath><linearGradient
       id="c"
       x1="470.16"
       x2="167.14999"
       y1="348.16"
       y2="651.15997"
       gradientUnits="userSpaceOnUse"
       gradientTransform="matrix(-1,0,0,1,670.003,-130.0105)"><stop
         offset="0"
         id="stop5" /><stop
         stop-opacity="0"
         offset="1"
         id="stop7" /></linearGradient></defs><circle
     style="opacity:1;fill:#c87137;fill-opacity:1;fill-rule:nonzero;stroke:none;stroke-width:9.50595665;stroke-linecap:round;stroke-miterlimit:4;stroke-dasharray:none;stroke-dashoffset:0;stroke-opacity:1"
     id="path900"
     cx="24"
     cy="24"
     r="22" /><path
     id="path530"
     style="fill:#aa4400;stroke:none;stroke-width:1px;stroke-linecap:butt;stroke-linejoin:miter;stroke-opacity:1;fill-opacity:1"
     d="M 36.326172 8.0019531 L 33.216797 8.59375 L 13.246094 8.6933594 L 11.962891 10.058594 L 14.947266 13.224609 L 18.048828 18.142578 L 21.980469 24.236328 L 19.148438 28.693359 L 15.703125 33.396484 L 15.357422 38.642578 L 11.837891 39.810547 L 16.775391 44.726562 A 22 22 0 0 0 24 46 A 22 22 0 0 0 46 24 A 22 22 0 0 0 44.65625 16.4375 L 36.326172 8.0019531 z " /><g
     id="g220"
     transform="matrix(0.0625,0,0,0.0625,8,8)"><g
       id="g165">
	<g
   id="g163">
		<path
   d="M 336.655,202.803 C 370.601,171.854 416.507,129.997 420.691,30 H 451 V 0 H 61 v 30 h 30.309 c 4.184,99.997 50.09,141.854 84.036,172.803 C 198.116,223.564 211,236.271 211,256 c 0,19.729 -12.884,32.436 -35.655,53.197 C 141.399,340.146 95.493,382.003 91.309,482 H 61 v 30 H 451 V 482 H 420.691 C 416.507,382.003 370.601,340.146 336.655,309.197 313.884,288.436 301,275.729 301,256 c 0,-19.729 12.884,-32.436 35.655,-53.197 z M 241,368.438 c -4.633,0.956 -9.21,2.347 -13.677,4.195 l -91.877,38.019 c 15.004,-38.15 39.17,-60.193 60.111,-79.285 C 218.927,310.06 241,289.935 241,256 Z m 75.443,-37.071 c 20.941,19.092 45.106,41.135 60.111,79.284 L 284.677,372.632 C 280.21,370.784 275.633,369.393 271,368.437 V 256 c 0,33.935 22.073,54.06 45.443,75.367 z M 134.919,100 C 127.666,81.101 122.657,58.282 121.346,30 h 269.307 c -1.311,28.282 -6.319,51.101 -13.573,70 z"
   id="path161" />
	</g>
</g><g
       id="g167">
</g><g
       id="g169">
</g><g
       id="g171">
</g><g
       id="g173">
</g><g
       id="g175">
</g><g
       id="g177">
</g><g
       id="g179">
</g><g
       id="g181">
</g><g
       id="g183">
</g><g
       id="g185">
</g><g
       id="g187">
</g><g
       id="g189">
</g><g
       id="g191">
</g><g
       id="g193">
</g><g
       id="g195">
</g></g></svg>
