<?xml version="1.0" encoding="UTF-8" standalone="no"?>
<svg
   xmlns:dc="http://purl.org/dc/elements/1.1/"
   xmlns:cc="http://creativecommons.org/ns#"
   xmlns:rdf="http://www.w3.org/1999/02/22-rdf-syntax-ns#"
   xmlns:svg="http://www.w3.org/2000/svg"
   xmlns="http://www.w3.org/2000/svg"
   xmlns:sodipodi="http://sodipodi.sourceforge.net/DTD/sodipodi-0.dtd"
   xmlns:inkscape="http://www.inkscape.org/namespaces/inkscape"
   aria-hidden="true"
   data-prefix="fas"
   data-icon="video"
   class="svg-inline--fa fa-video fa-w-18"
   role="img"
   viewBox="0 0 59.999997 64"
   version="1.1"
   id="svg4"
   sodipodi:docname="webcam-icon.svg"
   width="60"
   height="64"
   inkscape:version="1.0.1 (1.0.1+r73)">
  <metadata
     id="metadata10">
    <rdf:RDF>
      <cc:Work
         rdf:about="">
        <dc:format>image/svg+xml</dc:format>
        <dc:type
           rdf:resource="http://purl.org/dc/dcmitype/StillImage" />
        <dc:title></dc:title>
      </cc:Work>
    </rdf:RDF>
  </metadata>
  <defs
     id="defs8" />
  <sodipodi:namedview
     pagecolor="#ffffff"
     bordercolor="#666666"
     borderopacity="1"
     objecttolerance="10"
     gridtolerance="10"
     guidetolerance="10"
     inkscape:pageopacity="0"
     inkscape:pageshadow="2"
     inkscape:window-width="1920"
     inkscape:window-height="1016"
     id="namedview6"
     showgrid="false"
     inkscape:zoom="7.640853"
     inkscape:cx="9.8605318"
     inkscape:cy="36.399677"
     inkscape:window-x="0"
     inkscape:window-y="27"
     inkscape:window-maximized="1"
     inkscape:current-layer="svg4"
     inkscape:document-rotation="0"
     fit-margin-top="2"
     fit-margin-left="5.00007"
     fit-margin-right="5.00007"
     fit-margin-bottom="2" />
  <g
     id="g4886"
     transform="matrix(1.5384615,0,0,1.5384615,-6.923076,-5.6923067)">
    <path
       fill="#455a64"
       d="m 36.5,44 h -25 C 10.4,44 9.6999997,42.8 10.2,41.8 L 13,37.000001 H 35 L 37.7,41.8 c 0.6,1 -0.1,2.2 -1.2,2.2 z"
       id="path4266"
       style="stroke-width:1" />
    <ellipse
       fill="#78909c"
       cx="24"
       cy="22.999998"
       id="circle4268"
       rx="18"
       ry="17.999998"
       style="stroke-width:1" />
    <path
       fill="#455a64"
       d="m 24,35.000001 c -6.6,0 -12,-5.4 -12,-11.999999 0,-6.599999 5.4,-11.999999 12,-11.999999 6.6,0 12,5.4 12,11.999999 0,6.599999 -5.4,11.999999 -12,11.999999 z"
       id="path4270"
       style="stroke-width:1" />
    <ellipse
       fill="#42a5f5"
       cx="24"
       cy="22.999998"
       id="circle4272"
       rx="9"
       ry="8.999999"
       style="stroke-width:1" />
    <path
       fill="#90caf9"
       d="m 28.8,20.000002 c -1.2,-1.4 -3,-2.2 -4.8,-2.2 -1.8,0 -3.6,0.8 -4.8,2.2 -0.5,0.5 -0.4,1.3 0.1,1.8 0.5,0.5 1.3,0.4 1.8,-0.1 1.5,-1.7 4.3,-1.7 5.8,0 0.3,0.3 0.6,0.4 1,0.4 0.3,0 0.6,-0.1 0.9,-0.3 0.4,-0.4 0.5,-1.3 0,-1.8 z"
       id="path4274"
       style="stroke-width:1" />
  </g>
</svg>
