<?xml version="1.0" encoding="UTF-8" standalone="no"?>
<svg
   xmlns:dc="http://purl.org/dc/elements/1.1/"
   xmlns:cc="http://creativecommons.org/ns#"
   xmlns:rdf="http://www.w3.org/1999/02/22-rdf-syntax-ns#"
   xmlns:svg="http://www.w3.org/2000/svg"
   xmlns="http://www.w3.org/2000/svg"
   aria-hidden="true"
   data-prefix="fas"
   data-icon="video"
   class="svg-inline--fa fa-video fa-w-18"
   role="img"
   viewBox="0 0 21.999999 22"
   version="1.1"
   id="svg4"
   width="22"
   height="22">
  <metadata
     id="metadata10">
    <rdf:RDF>
      <cc:Work
         rdf:about="">
        <dc:format>image/svg+xml</dc:format>
        <dc:type
           rdf:resource="http://purl.org/dc/dcmitype/StillImage" />
        <dc:title></dc:title>
      </cc:Work>
    </rdf:RDF>
  </metadata>
  <defs
     id="defs8" />
  <path
     id="circle3412"
     style="fill:#7c7c7c;fill-opacity:1;stroke:none;stroke-width:0.555554;stroke-opacity:1"
     d="M 10.93707,1.00006 C 6.3593,1.03466 2.66656,4.75547 2.66669,9.33337 c 0,4.60235 3.73095,8.3333 8.33331,8.3333 4.60236,0 8.33331,-3.73095 8.33331,-8.3333 0,-4.60236 -3.73095,-8.33331 -8.33331,-8.33331 -0.021,-8e-5 -0.0419,-8e-5 -0.0629,0 z m 0.0629,1.66666 c 3.66666,0 6.66665,2.99999 6.66665,6.66665 0,3.66665 -2.99999,6.66664 -6.66665,6.66664 -3.66666,0 -6.66665,-2.99999 -6.66665,-6.66664 0,-3.66666 2.99999,-6.66665 6.66665,-6.66665 z m -0.005,1.66666 a 4.9999851,4.9999851 0 0 0 -4.99457,4.99999 4.9999851,4.9999851 0 0 0 4.99999,4.99998 4.9999851,4.9999851 0 0 0 4.99999,-4.99998 4.9999851,4.9999851 0 0 0 -4.99999,-4.99999 4.9999851,4.9999851 0 0 0 -0.005,0 z m 0.005,2.11154 c 1,0 2.00043,0.44401 2.66709,1.22178 0.27778,0.27778 0.22222,0.77821 0,1.00043 -0.16666,0.11111 -0.33355,0.16602 -0.50021,0.16602 -0.22222,0 -0.38889,-0.0547 -0.55556,-0.22135 -0.83333,-0.94445 -2.38822,-0.94445 -3.22156,0 C 9.11196,8.88957 8.66708,8.94491 8.3893,8.6671 8.11152,8.38933 8.05618,7.94445 8.334,7.66667 9.00067,6.8889 10.00001,6.44489 11.00001,6.44489 Z M 4.83354,17.20552 3.33398,19.77821 C 3.0562,20.33377 3.44444,21 4.05555,21 h 13.88884 c 0.61111,0 1.00065,-0.66623 0.66732,-1.22179 l -1.43229,-2.54665 c -1.75791,1.37359 -3.92466,2.1199 -6.15558,2.12023 -2.2459,2e-5 -4.42643,-0.756 -6.1903,-2.14627 z" />
</svg>
